%
M48
M72
T01C0.0217
T02C0.0400
T03C0.0669
%
T01
X11659Y4823
X12053Y5051
X11659Y5280
X12053Y5508
X11659Y5736
X12053Y5965
X11659Y6193
X12053Y6421
X11659Y6650
X12053Y6878
X11659Y7106
X12053Y7335
X11659Y7563
X12053Y7791
X11659Y8020
X12053Y8248
X11659Y8476
X12053Y8705
X12053Y4594
T02
X1600Y2000
X1600Y3000
X1600Y4000
X1600Y5000
X1600Y6000
X1600Y7000
X1600Y8000
X1600Y9000
X1600Y10000
X1600Y11000
X1600Y12000
X1600Y13000
X1600Y14000
X1600Y15000
X1600Y16000
X1600Y17000
X1600Y18000
X1600Y19000
X1600Y20000
X5100Y20000
X6100Y20000
X6100Y19000
X5100Y19000
X5100Y18000
X5100Y17000
X6100Y17000
X6100Y18000
X6100Y16000
X5100Y16000
X5100Y15000
X5100Y14000
X6100Y14000
X6100Y15000
X6100Y13000
X5100Y13000
X5100Y12000
X5100Y11000
X6100Y11000
X6100Y12000
X6100Y10000
X5100Y10000
X5100Y9000
X5100Y8000
X6100Y8000
X6100Y9000
X6100Y7000
X5100Y7000
X5100Y6000
X5100Y5000
X6100Y5000
X6100Y6000
X6100Y4000
X5100Y4000
X5100Y3000
X5100Y2000
X6100Y2000
X6100Y3000
X22600Y3000
X22600Y2000
X23600Y2000
X23600Y3000
X23600Y4000
X22600Y4000
X22600Y5000
X22600Y6000
X23600Y6000
X23600Y5000
X23600Y7000
X22600Y7000
X22600Y8000
X22600Y9000
X23600Y9000
X23600Y8000
X23600Y10000
X22600Y10000
X22600Y11000
X22600Y12000
X23600Y12000
X23600Y11000
X23600Y13000
X22600Y13000
X22600Y14000
X22600Y15000
X23600Y15000
X23600Y14000
X23600Y16000
X22600Y16000
X22600Y17000
X22600Y18000
X23600Y18000
X23600Y17000
X23600Y19000
X22600Y19000
X22600Y20000
X23600Y20000
X27100Y20000
X27100Y19000
X27100Y18000
X27100Y17000
X27100Y16000
X27100Y15000
X27100Y14000
X27100Y13000
X27100Y12000
X27100Y11000
X27100Y10000
X27100Y9000
X27100Y8000
X27100Y7000
X27100Y6000
X27100Y5000
X27100Y4000
X27100Y3000
X27100Y2000
X18800Y19000
X17800Y19000
X16800Y19000
X15800Y19000
X14800Y19000
X13800Y19000
X12800Y19000
X11800Y19000
X10800Y19000
X9800Y19000
X9800Y20000
X10800Y20000
X11800Y20000
X12800Y20000
X13800Y20000
X14800Y20000
X15800Y20000
X16800Y20000
X17800Y20000
X18800Y20000
T03
X11069Y9063
X12446Y3846
M30
