G75*
G70*
%OFA0B0*%
%FSLAX24Y24*%
%IPPOS*%
%LPD*%
%AMOC8*
5,1,8,0,0,1.08239X$1,22.5*
%
%ADD10C,0.0749*%
%ADD11C,0.0497*%
%ADD12R,0.0748X0.0866*%
%ADD13R,0.0709X0.0591*%
%ADD14R,0.0118X0.0343*%
%ADD15R,0.0680X0.0680*%
%ADD16OC8,0.0680*%
D10*
X011069Y009063D03*
X012446Y003846D03*
D11*
X012053Y004594D03*
X011659Y004823D03*
X012053Y005051D03*
X011659Y005280D03*
X012053Y005508D03*
X011659Y005736D03*
X012053Y005965D03*
X011659Y006193D03*
X012053Y006421D03*
X011659Y006650D03*
X012053Y006878D03*
X011659Y007106D03*
X012053Y007335D03*
X011659Y007563D03*
X012053Y007791D03*
X011659Y008020D03*
X012053Y008248D03*
X011659Y008476D03*
X012053Y008705D03*
D12*
X016517Y001419D03*
X018683Y001380D03*
D13*
X018683Y002639D03*
X016517Y002639D03*
D14*
X016970Y002759D03*
X017128Y002759D03*
X017285Y002759D03*
X017443Y002759D03*
X017600Y002759D03*
X017757Y002759D03*
X017915Y002759D03*
X018072Y002759D03*
X018230Y002759D03*
X018309Y003153D03*
X018151Y003153D03*
X017994Y003153D03*
X017836Y003153D03*
X017679Y003153D03*
X017521Y003153D03*
X017364Y003153D03*
X017206Y003153D03*
X017049Y003153D03*
X016891Y003153D03*
D15*
X001600Y002000D03*
X027100Y002000D03*
D16*
X027100Y003000D03*
X027100Y004000D03*
X027100Y005000D03*
X027100Y006000D03*
X027100Y007000D03*
X027100Y008000D03*
X027100Y009000D03*
X027100Y010000D03*
X027100Y011000D03*
X027100Y012000D03*
X027100Y013000D03*
X027100Y014000D03*
X027100Y015000D03*
X027100Y016000D03*
X027100Y017000D03*
X027100Y018000D03*
X027100Y019000D03*
X027100Y020000D03*
X023600Y020000D03*
X022600Y020000D03*
X022600Y019000D03*
X023600Y019000D03*
X023600Y018000D03*
X023600Y017000D03*
X022600Y017000D03*
X022600Y018000D03*
X022600Y016000D03*
X023600Y016000D03*
X023600Y015000D03*
X023600Y014000D03*
X022600Y014000D03*
X022600Y015000D03*
X022600Y013000D03*
X023600Y013000D03*
X023600Y012000D03*
X023600Y011000D03*
X022600Y011000D03*
X022600Y012000D03*
X022600Y010000D03*
X023600Y010000D03*
X023600Y009000D03*
X023600Y008000D03*
X022600Y008000D03*
X022600Y009000D03*
X022600Y007000D03*
X023600Y007000D03*
X023600Y006000D03*
X023600Y005000D03*
X022600Y005000D03*
X022600Y006000D03*
X022600Y004000D03*
X023600Y004000D03*
X023600Y003000D03*
X023600Y002000D03*
X022600Y002000D03*
X022600Y003000D03*
X006100Y003000D03*
X006100Y002000D03*
X005100Y002000D03*
X005100Y003000D03*
X005100Y004000D03*
X006100Y004000D03*
X006100Y005000D03*
X006100Y006000D03*
X005100Y006000D03*
X005100Y005000D03*
X005100Y007000D03*
X006100Y007000D03*
X006100Y008000D03*
X006100Y009000D03*
X005100Y009000D03*
X005100Y008000D03*
X005100Y010000D03*
X006100Y010000D03*
X006100Y011000D03*
X006100Y012000D03*
X005100Y012000D03*
X005100Y011000D03*
X005100Y013000D03*
X006100Y013000D03*
X006100Y014000D03*
X006100Y015000D03*
X005100Y015000D03*
X005100Y014000D03*
X005100Y016000D03*
X006100Y016000D03*
X006100Y017000D03*
X006100Y018000D03*
X005100Y018000D03*
X005100Y017000D03*
X005100Y019000D03*
X006100Y019000D03*
X006100Y020000D03*
X005100Y020000D03*
X001600Y020000D03*
X001600Y019000D03*
X001600Y018000D03*
X001600Y017000D03*
X001600Y016000D03*
X001600Y015000D03*
X001600Y014000D03*
X001600Y013000D03*
X001600Y012000D03*
X001600Y011000D03*
X001600Y010000D03*
X001600Y009000D03*
X001600Y008000D03*
X001600Y007000D03*
X001600Y006000D03*
X001600Y005000D03*
X001600Y004000D03*
X001600Y003000D03*
X009800Y019000D03*
X010800Y019000D03*
X011800Y019000D03*
X012800Y019000D03*
X013800Y019000D03*
X014800Y019000D03*
X015800Y019000D03*
X016800Y019000D03*
X017800Y019000D03*
X018800Y019000D03*
X018800Y020000D03*
X017800Y020000D03*
X016800Y020000D03*
X015800Y020000D03*
X014800Y020000D03*
X013800Y020000D03*
X012800Y020000D03*
X011800Y020000D03*
X010800Y020000D03*
X009800Y020000D03*
M02*
