G75*
G70*
%OFA0B0*%
%FSLAX24Y24*%
%IPPOS*%
%LPD*%
%AMOC8*
5,1,8,0,0,1.08239X$1,22.5*
%
%ADD10C,0.0417*%
%ADD11R,0.0087X0.0315*%
%ADD12R,0.0669X0.0551*%
%ADD13R,0.0669X0.0787*%
%ADD14R,0.0600X0.0600*%
%ADD15OC8,0.0600*%
%ADD16C,0.0160*%
%ADD17C,0.0100*%
%ADD18C,0.0080*%
D10*
X011659Y004823D03*
X012053Y005051D03*
X011659Y005280D03*
X012053Y005508D03*
X011659Y005736D03*
X012053Y005965D03*
X011659Y006193D03*
X012053Y006421D03*
X011659Y006650D03*
X012053Y006878D03*
X011659Y007106D03*
X012053Y007335D03*
X011659Y007563D03*
X012053Y007791D03*
X011659Y008020D03*
X012053Y008248D03*
X011659Y008476D03*
X012053Y008705D03*
X012053Y004594D03*
D11*
X016891Y003151D03*
X017049Y003151D03*
X017206Y003151D03*
X017364Y003151D03*
X017521Y003151D03*
X017679Y003151D03*
X017836Y003151D03*
X017994Y003151D03*
X018151Y003151D03*
X018309Y003151D03*
X018230Y002757D03*
X018072Y002757D03*
X017915Y002757D03*
X017757Y002757D03*
X017600Y002757D03*
X017443Y002757D03*
X017285Y002757D03*
X017128Y002757D03*
X016970Y002757D03*
D12*
X016517Y002639D03*
X018683Y002639D03*
D13*
X018683Y001380D03*
X016525Y001431D03*
D14*
X001600Y002000D03*
X027100Y002000D03*
D15*
X027100Y003000D03*
X027100Y004000D03*
X027100Y005000D03*
X027100Y006000D03*
X027100Y007000D03*
X027100Y008000D03*
X027100Y009000D03*
X027100Y010000D03*
X027100Y011000D03*
X027100Y012000D03*
X027100Y013000D03*
X027100Y014000D03*
X027100Y015000D03*
X027100Y016000D03*
X027100Y017000D03*
X027100Y018000D03*
X027100Y019000D03*
X027100Y020000D03*
X023600Y020000D03*
X022600Y020000D03*
X022600Y019000D03*
X023600Y019000D03*
X023600Y018000D03*
X023600Y017000D03*
X022600Y017000D03*
X022600Y018000D03*
X022600Y016000D03*
X023600Y016000D03*
X023600Y015000D03*
X023600Y014000D03*
X022600Y014000D03*
X022600Y015000D03*
X022600Y013000D03*
X023600Y013000D03*
X023600Y012000D03*
X023600Y011000D03*
X022600Y011000D03*
X022600Y012000D03*
X022600Y010000D03*
X023600Y010000D03*
X023600Y009000D03*
X023600Y008000D03*
X022600Y008000D03*
X022600Y009000D03*
X022600Y007000D03*
X023600Y007000D03*
X023600Y006000D03*
X023600Y005000D03*
X022600Y005000D03*
X022600Y006000D03*
X022600Y004000D03*
X023600Y004000D03*
X023600Y003000D03*
X023600Y002000D03*
X022600Y002000D03*
X022600Y003000D03*
X006100Y003000D03*
X006100Y002000D03*
X005100Y002000D03*
X005100Y003000D03*
X005100Y004000D03*
X006100Y004000D03*
X006100Y005000D03*
X006100Y006000D03*
X005100Y006000D03*
X005100Y005000D03*
X005100Y007000D03*
X006100Y007000D03*
X006100Y008000D03*
X006100Y009000D03*
X005100Y009000D03*
X005100Y008000D03*
X005100Y010000D03*
X006100Y010000D03*
X006100Y011000D03*
X006100Y012000D03*
X005100Y012000D03*
X005100Y011000D03*
X005100Y013000D03*
X006100Y013000D03*
X006100Y014000D03*
X006100Y015000D03*
X005100Y015000D03*
X005100Y014000D03*
X005100Y016000D03*
X006100Y016000D03*
X006100Y017000D03*
X006100Y018000D03*
X005100Y018000D03*
X005100Y017000D03*
X005100Y019000D03*
X006100Y019000D03*
X006100Y020000D03*
X005100Y020000D03*
X001600Y020000D03*
X001600Y019000D03*
X001600Y018000D03*
X001600Y017000D03*
X001600Y016000D03*
X001600Y015000D03*
X001600Y014000D03*
X001600Y013000D03*
X001600Y012000D03*
X001600Y011000D03*
X001600Y010000D03*
X001600Y009000D03*
X001600Y008000D03*
X001600Y007000D03*
X001600Y006000D03*
X001600Y005000D03*
X001600Y004000D03*
X001600Y003000D03*
X009800Y019000D03*
X010800Y019000D03*
X011800Y019000D03*
X012800Y019000D03*
X013800Y019000D03*
X014800Y019000D03*
X015800Y019000D03*
X016800Y019000D03*
X017800Y019000D03*
X018800Y019000D03*
X018800Y020000D03*
X017800Y020000D03*
X016800Y020000D03*
X015800Y020000D03*
X014800Y020000D03*
X013800Y020000D03*
X012800Y020000D03*
X011800Y020000D03*
X010800Y020000D03*
X009800Y020000D03*
D16*
X005100Y020000D02*
X001600Y020000D01*
X001600Y019000D02*
X005100Y019000D01*
X005100Y018000D02*
X001600Y018000D01*
X001600Y017000D02*
X005100Y017000D01*
X005100Y016000D02*
X001600Y016000D01*
X001600Y015000D02*
X005100Y015000D01*
X005100Y014000D02*
X001600Y014000D01*
X001600Y013000D02*
X005100Y013000D01*
X005100Y012000D02*
X001600Y012000D01*
X001600Y011000D02*
X005100Y011000D01*
X005100Y010000D02*
X001600Y010000D01*
X001600Y009000D02*
X005100Y009000D01*
X005100Y008000D02*
X001600Y008000D01*
X001600Y007000D02*
X005100Y007000D01*
X005100Y006000D02*
X001600Y006000D01*
X001600Y005000D02*
X005100Y005000D01*
X005100Y004000D02*
X001600Y004000D01*
X001600Y003000D02*
X005100Y003000D01*
X005100Y002000D02*
X001600Y002000D01*
X023600Y002000D02*
X027100Y002000D01*
X027100Y003000D02*
X023600Y003000D01*
X023600Y004000D02*
X027100Y004000D01*
X027100Y005000D02*
X023600Y005000D01*
X023600Y006000D02*
X027100Y006000D01*
X027100Y007000D02*
X023600Y007000D01*
X023600Y008000D02*
X027100Y008000D01*
X027100Y009000D02*
X023600Y009000D01*
X023600Y010000D02*
X027100Y010000D01*
X027100Y011000D02*
X023600Y011000D01*
X023600Y012000D02*
X027100Y012000D01*
X027100Y013000D02*
X023600Y013000D01*
X023600Y014000D02*
X027100Y014000D01*
X027100Y015000D02*
X023600Y015000D01*
X023600Y016000D02*
X027100Y016000D01*
X027100Y017000D02*
X023600Y017000D01*
X023600Y018000D02*
X027100Y018000D01*
X027100Y019000D02*
X023600Y019000D01*
X023600Y020000D02*
X027100Y020000D01*
D17*
X015200Y011000D02*
X015200Y007600D01*
X014100Y006500D01*
X012131Y006500D01*
X012053Y006421D01*
X011659Y006193D02*
X009807Y006193D01*
X007100Y008900D01*
X006200Y008900D01*
X006100Y009000D01*
X006100Y008000D02*
X007200Y008000D01*
X009464Y005736D01*
X011659Y005736D01*
X012053Y005508D02*
X013092Y005508D01*
X013700Y004900D01*
X013700Y003100D01*
X013100Y002500D01*
X011800Y002500D01*
X011000Y003300D01*
X007900Y003300D01*
X007600Y003000D01*
X006100Y003000D01*
X006200Y002100D02*
X006100Y002000D01*
X006200Y002100D02*
X013500Y002100D01*
X014200Y002800D01*
X014200Y005200D01*
X013435Y005965D01*
X012053Y005965D01*
X011659Y006650D02*
X010050Y006650D01*
X007400Y009300D01*
X007400Y009700D01*
X007100Y010000D01*
X006100Y010000D01*
X006100Y011000D02*
X007200Y011000D01*
X007800Y010400D01*
X007800Y009600D01*
X010294Y007106D01*
X011659Y007106D01*
X012053Y006878D02*
X012075Y006900D01*
X013700Y006900D01*
X014500Y007700D01*
X014500Y010400D01*
X011800Y013100D01*
X011800Y013600D01*
X006400Y019000D01*
X006100Y019000D01*
X006100Y018000D02*
X006500Y018000D01*
X011200Y013300D01*
X011200Y011700D01*
X011500Y011400D01*
X012700Y011400D01*
X014000Y010100D01*
X014000Y008000D01*
X013400Y007400D01*
X012118Y007400D01*
X012053Y007335D01*
X011659Y007563D02*
X010437Y007563D01*
X008300Y009700D01*
X008300Y010800D01*
X007100Y012000D01*
X006100Y012000D01*
X006100Y013000D02*
X007100Y013000D01*
X008700Y011400D01*
X008700Y010000D01*
X010680Y008020D01*
X011659Y008020D01*
X012053Y008248D02*
X012105Y008300D01*
X012500Y008300D01*
X012700Y008500D01*
X012700Y009500D01*
X011900Y010300D01*
X010800Y010300D01*
X010200Y010900D01*
X010200Y012500D01*
X006700Y016000D01*
X006100Y016000D01*
X006100Y015000D02*
X006700Y015000D01*
X009700Y012000D01*
X009700Y010600D01*
X010500Y009800D01*
X011700Y009800D01*
X012100Y009400D01*
X012100Y008752D01*
X012053Y008705D01*
X011659Y008476D02*
X010824Y008476D01*
X009100Y010200D01*
X009100Y011800D01*
X006900Y014000D01*
X006100Y014000D01*
X006100Y017000D02*
X006700Y017000D01*
X010700Y013000D01*
X010700Y011300D01*
X011100Y010900D01*
X012200Y010900D01*
X013300Y009800D01*
X013300Y008200D01*
X012900Y007800D01*
X012061Y007800D01*
X012053Y007791D01*
X011659Y005280D02*
X009120Y005280D01*
X007400Y007000D01*
X006100Y007000D01*
X006200Y006100D02*
X006100Y006000D01*
X006200Y006100D02*
X007500Y006100D01*
X008777Y004823D01*
X011659Y004823D01*
X012053Y005051D02*
X012749Y005051D01*
X013200Y004600D01*
X013200Y003300D01*
X012900Y003000D01*
X012100Y003000D01*
X011300Y003800D01*
X007900Y003800D01*
X007600Y004100D01*
X006200Y004100D01*
X006100Y004000D01*
X006100Y005000D02*
X007800Y005000D01*
X008500Y004300D01*
X011800Y004300D01*
X012053Y004553D01*
X012053Y004594D01*
X015200Y011000D02*
X006200Y020000D01*
X006100Y020000D01*
D18*
X019550Y017050D02*
X022600Y020000D01*
X022600Y019000D02*
X019800Y016200D01*
X019800Y007700D01*
X015700Y003600D01*
X015700Y002200D01*
X015950Y001950D01*
X017100Y001950D01*
X017285Y002135D01*
X017285Y002757D01*
X017128Y002757D02*
X017128Y002178D01*
X017050Y002100D01*
X016000Y002100D01*
X015850Y002250D01*
X015850Y003500D01*
X020000Y007650D01*
X020000Y015400D01*
X022600Y018000D01*
X022600Y017000D02*
X020200Y014600D01*
X020200Y007600D01*
X016000Y003400D01*
X016000Y002350D01*
X016100Y002250D01*
X016950Y002250D01*
X016970Y002270D01*
X016970Y002757D01*
X017443Y002757D02*
X017443Y001343D01*
X017000Y000900D01*
X015900Y000900D01*
X015550Y001250D01*
X015550Y003800D01*
X019550Y007800D01*
X019550Y017050D01*
X022600Y016000D02*
X020400Y013800D01*
X020400Y007500D01*
X016891Y003991D01*
X016891Y003151D01*
X017049Y003151D02*
X017049Y003849D01*
X020600Y007400D01*
X020600Y013000D01*
X022600Y015000D01*
X022600Y014000D02*
X020800Y012200D01*
X020800Y007300D01*
X018400Y004900D01*
X018300Y004900D01*
X017206Y003806D01*
X017206Y003151D01*
X017364Y003151D02*
X017364Y003764D01*
X018350Y004750D01*
X018550Y004750D01*
X021000Y007200D01*
X021000Y011400D01*
X022600Y013000D01*
X022600Y012000D02*
X021200Y010600D01*
X021200Y007100D01*
X018700Y004600D01*
X018400Y004600D01*
X017521Y003721D01*
X017521Y003151D01*
X017679Y003151D02*
X017679Y003679D01*
X018400Y004400D01*
X018800Y004400D01*
X021400Y007000D01*
X021400Y009800D01*
X022600Y011000D01*
X022600Y010000D02*
X021600Y009000D01*
X021600Y006900D01*
X018900Y004200D01*
X018400Y004200D01*
X017836Y003636D01*
X017836Y003151D01*
X017994Y003151D02*
X017994Y003544D01*
X018450Y004000D01*
X019000Y004000D01*
X021800Y006800D01*
X021800Y008200D01*
X022600Y009000D01*
X022600Y008000D02*
X022000Y007400D01*
X022000Y006700D01*
X019100Y003800D01*
X018450Y003800D01*
X018151Y003501D01*
X018151Y003151D01*
X018309Y003151D02*
X018751Y003151D01*
X022600Y007000D01*
X022600Y006000D02*
X019300Y002700D01*
X019300Y002400D01*
X019100Y002200D01*
X018300Y002200D01*
X018230Y002270D01*
X018230Y002757D01*
X018072Y002757D02*
X018072Y002228D01*
X018250Y002050D01*
X019200Y002050D01*
X019450Y002300D01*
X019450Y002350D01*
X022100Y005000D01*
X022600Y005000D01*
X022600Y004000D02*
X022100Y004000D01*
X020250Y002150D01*
X019550Y002150D01*
X019300Y001900D01*
X018150Y001900D01*
X017915Y002135D01*
X017915Y002757D01*
X017757Y002757D02*
X017757Y002043D01*
X018200Y001600D01*
X018200Y000950D01*
X018300Y000850D01*
X019050Y000850D01*
X019850Y001650D01*
X020750Y001650D01*
X022100Y003000D01*
X022600Y003000D01*
X022600Y002000D02*
X021600Y002000D01*
X020600Y001000D01*
X019400Y001000D01*
X019100Y000700D01*
X018250Y000700D01*
X018050Y000900D01*
X018050Y001500D01*
X017600Y001950D01*
X017600Y002757D01*
M02*
